<svg viewBox="0 0 10 10" xmlns="http://www.w3.org/2000/svg">
<path d="M2.49443 9.9054C2.52439 9.93539 2.55997 9.95918 2.59912 9.97541C2.63828 9.99164 2.68026 10 2.72265 10C2.76504 10 2.80701 9.99164 2.84617 9.97541C2.88533 9.95918 2.92091 9.93539 2.95086 9.9054L7.62808 5.22818C7.65807 5.19822 7.68186 5.16265 7.6981 5.12349C7.71433 5.08433 7.72268 5.04235 7.72268 4.99996C7.72268 4.95757 7.71433 4.9156 7.6981 4.87644C7.68186 4.83728 7.65807 4.8017 7.62808 4.77175L2.95086 0.0945303C2.92089 0.0645605 2.88532 0.0407872 2.84616 0.0245677C2.807 0.00834823 2.76503 0 2.72265 0C2.68026 0 2.6383 0.00834823 2.59914 0.0245677C2.55998 0.0407872 2.5244 0.0645605 2.49443 0.0945303C2.46446 0.1245 2.44069 0.160079 2.42447 0.199237C2.40825 0.238394 2.3999 0.280363 2.3999 0.322746C2.3999 0.36513 2.40825 0.407098 2.42447 0.446256C2.44069 0.485413 2.46446 0.520992 2.49443 0.550962L6.94263 5.00077L2.49443 9.45058C2.43435 9.51101 2.40063 9.59277 2.40063 9.67799C2.40063 9.7632 2.43435 9.84496 2.49443 9.9054V9.9054Z"/>
</svg>
