<svg width="161" height="161" viewBox="0 0 161 161" fill="none" xmlns="http://www.w3.org/2000/svg">
<g clip-path="url(#clip0)">
<mask id="mask0" mask-type="alpha" maskUnits="userSpaceOnUse" x="0" y="61" width="161" height="40">
<path d="M29.9408 65.2256V85.18H29.9354C29.939 85.3162 29.9408 85.4529 29.9408 85.59C29.9408 93.8931 23.2383 100.624 14.9704 100.624C6.70248 100.624 0 93.8931 0 85.59C0 77.2869 6.70248 70.5559 14.9704 70.5559C17.4207 70.5559 19.7335 71.1471 21.7751 72.1952V65.2256C21.7751 62.9612 23.6031 61.1254 25.858 61.1254C28.1129 61.1254 29.9408 62.9612 29.9408 65.2256ZM125.343 65.2256V79.5885L125.344 86.8696L125.343 89.9629C125.343 91.3216 126.439 92.4227 127.791 92.4237L127.793 92.4256C127.793 92.4279 127.794 92.4302 127.794 92.4326C127.884 92.4267 127.974 92.4237 128.065 92.4237C130.32 92.4237 132.148 94.2594 132.148 96.5239C132.148 98.7884 130.32 100.624 128.065 100.624C127.999 100.624 127.933 100.623 127.868 100.619C127.844 100.623 127.819 100.624 127.793 100.624C126.942 100.624 126.114 100.523 125.321 100.333C120.65 99.2147 117.178 94.9964 117.178 89.9636C117.178 89.827 117.182 89.6904 117.191 89.5535H117.178V65.2256C117.178 62.9612 119.005 61.1254 121.26 61.1254C123.515 61.1254 125.343 62.9612 125.343 65.2256ZM113.775 96.7101L113.777 96.7122C111.117 99.1426 107.583 100.624 103.704 100.624C95.4362 100.624 88.7337 93.8931 88.7337 85.59C88.7337 77.2869 95.4362 70.5559 103.704 70.5559C107.571 70.5559 111.095 72.0281 113.751 74.4447L113.749 74.4471C114.6 75.1985 115.136 76.2995 115.136 77.5263C115.136 79.7907 113.308 81.6265 111.053 81.6265C110.037 81.6265 109.108 81.2537 108.393 80.6369C108.39 80.6344 108.386 80.6313 108.383 80.6283C108.325 80.5775 108.268 80.5251 108.212 80.471C107.012 79.404 105.433 78.7563 103.704 78.7563C99.946 78.7563 96.8994 81.8159 96.8994 85.59C96.8994 89.3641 99.946 92.4237 103.704 92.4237C105.433 92.4237 107.012 91.776 108.212 90.709C108.268 90.6549 108.325 90.6025 108.383 90.5517C108.388 90.5469 108.393 90.5421 108.398 90.5372L108.398 90.5386C109.112 89.9245 110.04 89.5535 111.053 89.5535C113.308 89.5535 115.136 91.3893 115.136 93.6537C115.136 94.8682 114.61 95.9593 113.775 96.7101ZM86.556 96.7101L86.5578 96.7122C83.8985 99.1426 80.3641 100.624 76.4852 100.624C68.2173 100.624 61.5148 93.8931 61.5148 85.59C61.5148 77.2869 68.2173 70.5559 76.4852 70.5559C80.3518 70.5559 83.8761 72.0281 86.5325 74.4447L86.5304 74.4471C87.3807 75.1985 87.9172 76.2995 87.9172 77.5263C87.9172 79.7907 86.0892 81.6265 83.8343 81.6265C82.8182 81.6265 81.8888 81.2537 81.1743 80.6369C81.1707 80.6344 81.1675 80.6313 81.1643 80.6283C81.1059 80.5775 81.0488 80.5251 80.9933 80.471C79.7929 79.404 78.2144 78.7563 76.4852 78.7563C72.7271 78.7563 69.6805 81.8159 69.6805 85.59C69.6805 89.3641 72.7271 92.4237 76.4852 92.4237C78.2144 92.4237 79.7929 91.776 80.9933 90.709C81.0488 90.6549 81.1059 90.6025 81.1643 90.5517C81.1694 90.5469 81.1744 90.5421 81.1795 90.5372L81.1795 90.5386C81.8933 89.9245 82.8207 89.5535 83.8343 89.5535C86.0892 89.5535 87.9172 91.3893 87.9172 93.6537C87.9172 94.8682 87.3914 95.9593 86.556 96.7101ZM140.135 89.0068C141.312 91.0494 143.511 92.4237 146.03 92.4237C147.269 92.4237 148.431 92.0909 149.432 91.5095V91.5348C149.932 91.3154 150.484 91.1936 151.065 91.1936C153.32 91.1936 155.148 93.0293 155.148 95.2938C155.148 96.9691 154.147 98.4097 152.714 99.046C150.702 100.056 148.432 100.624 146.03 100.624C137.762 100.624 131.059 93.8931 131.059 85.59C131.059 77.2869 137.762 70.5559 146.03 70.5559C154.117 70.5559 160.707 76.9966 160.99 85.0491C160.997 85.1375 161 85.2267 161 85.3167C161 85.3469 161 85.3771 160.999 85.4072C160.999 85.4226 160.999 85.4379 160.999 85.4533H160.998C160.926 87.428 159.309 89.0068 157.325 89.0068H140.135ZM140.216 82.0365H151.843C150.648 80.0695 148.492 78.7563 146.03 78.7563C143.567 78.7563 141.411 80.0695 140.216 82.0365ZM45.7278 100.624C37.4599 100.624 30.7574 93.8931 30.7574 85.59C30.7574 77.2869 37.4599 70.5559 45.7278 70.5559C53.9957 70.5559 60.6982 77.2869 60.6982 85.59C60.6982 93.8931 53.9957 100.624 45.7278 100.624ZM45.7278 92.4237C49.486 92.4237 52.5325 89.3641 52.5325 85.59C52.5325 81.8159 49.486 78.7563 45.7278 78.7563C41.9697 78.7563 38.9231 81.8159 38.9231 85.59C38.9231 89.3641 41.9697 92.4237 45.7278 92.4237ZM14.9704 92.4237C18.7286 92.4237 21.7751 89.3641 21.7751 85.59C21.7751 81.8159 18.7286 78.7563 14.9704 78.7563C11.2123 78.7563 8.16568 81.8159 8.16568 85.59C8.16568 89.3641 11.2123 92.4237 14.9704 92.4237Z" fill="white"/>
</mask>
<g mask="url(#mask0)">
<path d="M29.9408 65.2256V85.18H29.9354C29.939 85.3162 29.9408 85.4529 29.9408 85.59C29.9408 93.8931 23.2383 100.624 14.9704 100.624C6.70248 100.624 0 93.8931 0 85.59C0 77.2869 6.70248 70.5559 14.9704 70.5559C17.4207 70.5559 19.7335 71.1471 21.7751 72.1952V65.2256C21.7751 62.9612 23.6031 61.1254 25.858 61.1254C28.1129 61.1254 29.9408 62.9612 29.9408 65.2256ZM125.343 65.2256V79.5885L125.344 86.8696L125.343 89.9629C125.343 91.3216 126.439 92.4227 127.791 92.4237L127.793 92.4256C127.793 92.4279 127.794 92.4302 127.794 92.4326C127.884 92.4267 127.974 92.4237 128.065 92.4237C130.32 92.4237 132.148 94.2594 132.148 96.5239C132.148 98.7884 130.32 100.624 128.065 100.624C127.999 100.624 127.933 100.623 127.868 100.619C127.844 100.623 127.819 100.624 127.793 100.624C126.942 100.624 126.114 100.523 125.321 100.333C120.65 99.2147 117.178 94.9964 117.178 89.9636C117.178 89.827 117.182 89.6904 117.191 89.5535H117.178V65.2256C117.178 62.9612 119.005 61.1254 121.26 61.1254C123.515 61.1254 125.343 62.9612 125.343 65.2256ZM113.775 96.7101L113.777 96.7122C111.117 99.1426 107.583 100.624 103.704 100.624C95.4362 100.624 88.7337 93.8931 88.7337 85.59C88.7337 77.2869 95.4362 70.5559 103.704 70.5559C107.571 70.5559 111.095 72.0281 113.751 74.4447L113.749 74.4471C114.6 75.1985 115.136 76.2995 115.136 77.5263C115.136 79.7907 113.308 81.6265 111.053 81.6265C110.037 81.6265 109.108 81.2537 108.393 80.6369C108.39 80.6344 108.386 80.6313 108.383 80.6283C108.325 80.5775 108.268 80.5251 108.212 80.471C107.012 79.404 105.433 78.7563 103.704 78.7563C99.946 78.7563 96.8994 81.8159 96.8994 85.59C96.8994 89.3641 99.946 92.4237 103.704 92.4237C105.433 92.4237 107.012 91.776 108.212 90.709C108.268 90.6549 108.325 90.6025 108.383 90.5517C108.388 90.5469 108.393 90.5421 108.398 90.5372L108.398 90.5386C109.112 89.9245 110.04 89.5535 111.053 89.5535C113.308 89.5535 115.136 91.3893 115.136 93.6537C115.136 94.8682 114.61 95.9593 113.775 96.7101ZM86.556 96.7101L86.5578 96.7122C83.8985 99.1426 80.3641 100.624 76.4852 100.624C68.2173 100.624 61.5148 93.8931 61.5148 85.59C61.5148 77.2869 68.2173 70.5559 76.4852 70.5559C80.3518 70.5559 83.8761 72.0281 86.5325 74.4447L86.5304 74.4471C87.3807 75.1985 87.9172 76.2995 87.9172 77.5263C87.9172 79.7907 86.0892 81.6265 83.8343 81.6265C82.8182 81.6265 81.8888 81.2537 81.1743 80.6369C81.1707 80.6344 81.1675 80.6313 81.1643 80.6283C81.1059 80.5775 81.0488 80.5251 80.9933 80.471C79.7929 79.404 78.2144 78.7563 76.4852 78.7563C72.7271 78.7563 69.6805 81.8159 69.6805 85.59C69.6805 89.3641 72.7271 92.4237 76.4852 92.4237C78.2144 92.4237 79.7929 91.776 80.9933 90.709C81.0488 90.6549 81.1059 90.6025 81.1643 90.5517C81.1694 90.5469 81.1744 90.5421 81.1795 90.5372L81.1795 90.5386C81.8933 89.9245 82.8207 89.5535 83.8343 89.5535C86.0892 89.5535 87.9172 91.3893 87.9172 93.6537C87.9172 94.8682 87.3914 95.9593 86.556 96.7101ZM140.135 89.0068C141.312 91.0494 143.511 92.4237 146.03 92.4237C147.269 92.4237 148.431 92.0909 149.432 91.5095V91.5348C149.932 91.3154 150.484 91.1936 151.065 91.1936C153.32 91.1936 155.148 93.0293 155.148 95.2938C155.148 96.9691 154.147 98.4097 152.714 99.046C150.702 100.056 148.432 100.624 146.03 100.624C137.762 100.624 131.059 93.8931 131.059 85.59C131.059 77.2869 137.762 70.5559 146.03 70.5559C154.117 70.5559 160.707 76.9966 160.99 85.0491C160.997 85.1375 161 85.2267 161 85.3167C161 85.3469 161 85.3771 160.999 85.4072C160.999 85.4226 160.999 85.4379 160.999 85.4533H160.998C160.926 87.428 159.309 89.0068 157.325 89.0068H140.135ZM140.216 82.0365H151.843C150.648 80.0695 148.492 78.7563 146.03 78.7563C143.567 78.7563 141.411 80.0695 140.216 82.0365ZM45.7278 100.624C37.4599 100.624 30.7574 93.8931 30.7574 85.59C30.7574 77.2869 37.4599 70.5559 45.7278 70.5559C53.9957 70.5559 60.6982 77.2869 60.6982 85.59C60.6982 93.8931 53.9957 100.624 45.7278 100.624ZM45.7278 92.4237C49.486 92.4237 52.5325 89.3641 52.5325 85.59C52.5325 81.8159 49.486 78.7563 45.7278 78.7563C41.9697 78.7563 38.9231 81.8159 38.9231 85.59C38.9231 89.3641 41.9697 92.4237 45.7278 92.4237ZM14.9704 92.4237C18.7286 92.4237 21.7751 89.3641 21.7751 85.59C21.7751 81.8159 18.7286 78.7563 14.9704 78.7563C11.2123 78.7563 8.16568 81.8159 8.16568 85.59C8.16568 89.3641 11.2123 92.4237 14.9704 92.4237Z" fill="#D8D8D8"/>
<path fill-rule="evenodd" clip-rule="evenodd" d="M0 61.1254H162.309V101.941H0V61.1254Z" fill="url(#paint0_linear)"/>
<mask id="mask1" mask-type="alpha" maskUnits="userSpaceOnUse" x="-6" y="72" width="171" height="25">
<path d="M3.36787 72.9937C28.8148 78.4137 54.5759 81.1237 80.6511 81.1237C106.726 81.1237 133.672 78.4137 161.489 72.9937L164.843 85.7929L161.489 96.6046C138.293 91.079 111.347 88.3161 80.6511 88.3161C49.955 88.3161 24.5448 91.079 4.42076 96.6046L-5.10556 85.7929L3.36787 72.9937Z" fill="white"/>
</mask>
<g mask="url(#mask1)">
<path fill-rule="evenodd" clip-rule="evenodd" d="M-10.0349 72.3093H171.92V98.5382H-10.0349V72.3093Z" fill="url(#paint1_linear)"/>
</g>
</g>
</g>
<defs>
<linearGradient id="paint0_linear" x1="10.5748" y1="81.431" x2="147.786" y2="81.431" gradientUnits="userSpaceOnUse">
<stop stop-color="#FDC600"/>
<stop offset="0.393251" stop-color="#FCE000"/>
<stop offset="0.616078" stop-color="#B2CC2C"/>
<stop offset="0.798681" stop-color="#6BBD94"/>
<stop offset="0.846232" stop-color="#21BADA"/>
<stop offset="1" stop-color="#00A8E8"/>
</linearGradient>
<linearGradient id="paint1_linear" x1="0.142823" y1="85.4237" x2="149.73" y2="85.4237" gradientUnits="userSpaceOnUse">
<stop stop-color="#EF7C00"/>
<stop offset="0.475676" stop-color="#C2C006"/>
<stop offset="0.729568" stop-color="#3AAC56"/>
<stop offset="1" stop-color="#009FE3"/>
</linearGradient>
<clipPath id="clip0">
<rect width="161" height="39.4987" fill="white" transform="translate(0 61.1254)"/>
</clipPath>
</defs>
</svg>
