<svg xmlns="http://www.w3.org/2000/svg" viewBox="0 0 50 50">
<path d="M 25 20.832031 C 22.699219 20.832031 20.832031 18.964844 20.832031 16.667969 C 20.832031 14.367188 22.699219 12.5 25 12.5 C 27.300781 12.5 29.167969 14.367188 29.167969 16.667969 C 29.167969 18.964844 27.300781 20.832031 25 20.832031 M 25 10.417969 C 21.546875 10.417969 18.75 13.214844 18.75 16.667969 C 18.75 20.117188 21.546875 22.917969 25 22.917969 C 28.453125 22.917969 31.25 20.117188 31.25 16.667969 C 31.25 13.214844 28.453125 10.417969 25 10.417969 M 10.417969 15.835938 C 10.417969 8.511719 17.230469 2.082031 25 2.082031 C 32.769531 2.082031 39.582031 8.511719 39.582031 15.835938 C 39.582031 23.035156 34.242188 31.550781 25 46.101562 C 15.648438 31.367188 10.417969 23.035156 10.417969 15.835938 M 25 0 C 16.253906 0 8.332031 7.089844 8.332031 15.835938 C 8.332031 24.582031 15.558594 35.023438 25 50 C 34.441406 35.023438 41.667969 24.582031 41.667969 15.835938 C 41.667969 7.089844 33.746094 0 25 0 "/>
</svg>
