<svg width="200" height="200" viewBox="0 0 200 200" fill="none" xmlns="http://www.w3.org/2000/svg">
<ellipse cx="80.3918" cy="9.80392" rx="9.80392" ry="9.80392" />
<ellipse cx="115.687" cy="49.0196" rx="9.80392" ry="9.80392" />
<ellipse cx="150.981" cy="96.0785" rx="9.80392" ry="9.80392" />
<ellipse cx="52.9416" cy="60.7843" rx="9.80392" ry="9.80392" />
<ellipse cx="9.80392" cy="88.2353" rx="9.80392" ry="9.80392" />
<ellipse cx="119.608" cy="190.196" rx="9.80393" ry="9.80392" />
<ellipse cx="56.8625" cy="139.216" rx="9.80393" ry="9.80392" />
<circle cx="190.197" cy="127.451" r="9.80392" />
<ellipse cx="168.628" cy="50.9803" rx="15.6863" ry="15.6863" />
<circle cx="156.863" cy="152.941" r="15.6863" />
<ellipse cx="66.6667" cy="180.392" rx="15.6863" ry="15.6863" />
<ellipse cx="139.215" cy="37.2549" rx="5.88234" ry="5.88235" />
<ellipse cx="123.53" cy="9.80386" rx="5.88236" ry="5.88235" />
<ellipse cx="194.118" cy="88.2353" rx="5.88236" ry="5.88235" />
<ellipse cx="166.667" cy="119.608" rx="5.88235" ry="5.88236" />
<ellipse cx="37.2544" cy="103.922" rx="5.88235" ry="5.88235" />
<ellipse cx="127.451" cy="154.902" rx="5.88235" ry="5.88235" />
<ellipse cx="88.2349" cy="162.745" rx="5.88235" ry="5.88235" />
<ellipse cx="17.647" cy="143.137" rx="5.88235" ry="5.88235" />
<ellipse cx="41.1763" cy="162.745" rx="5.88235" ry="5.88235" />
<ellipse cx="49.02" cy="25.4901" rx="5.88235" ry="5.88235" />
<ellipse cx="101.961" cy="23.5294" rx="3.92157" ry="3.92157" />
<ellipse cx="101.961" cy="7.84308" rx="3.92157" ry="3.92157" />
<ellipse cx="70.5886" cy="31.3725" rx="3.92156" ry="3.92157" />
<ellipse cx="121.569" cy="27.451" rx="3.92157" ry="3.92157" />
<ellipse cx="35.2936" cy="43.1373" rx="3.92157" ry="3.92157" />
<ellipse cx="66.6667" cy="47.0588" rx="3.92156" ry="3.92157" />
<circle cx="50.9802" cy="43.1373" r="3.92157" />
<ellipse cx="35.2936" cy="62.7451" rx="3.92157" ry="3.92157" />
<ellipse cx="15.6862" cy="54.9019" rx="3.92157" ry="3.92157" />
<ellipse cx="23.529" cy="74.5098" rx="3.92157" ry="3.92157" />
<ellipse cx="31.3727" cy="90.1961" rx="3.92157" ry="3.92157" />
<ellipse cx="50.9802" cy="86.2745" rx="3.92157" ry="3.92157" />
<ellipse cx="7.84344" cy="109.804" rx="3.92157" ry="3.92157" />
<ellipse cx="23.529" cy="117.647" rx="3.92157" ry="3.92158" />
<ellipse cx="47.0593" cy="117.647" rx="3.92157" ry="3.92158" />
<ellipse cx="35.2936" cy="137.255" rx="3.92157" ry="3.92155" />
<circle cx="27.4509" cy="156.863" r="3.92157" />
<ellipse cx="58.8239" cy="156.863" rx="3.92157" ry="3.92157" />
<circle cx="74.5095" cy="149.02" r="3.92157" />
<circle cx="76.4706" cy="158.824" r="1.96078" />
<ellipse cx="41.1766" cy="178.431" rx="1.96078" ry="1.96078" />
<circle cx="103.922" cy="198.039" r="1.96078" />
<ellipse cx="119.608" cy="162.745" rx="1.96078" ry="1.96078" />
<circle cx="139.216" cy="186.275" r="1.96078" />
<circle cx="143.138" cy="170.588" r="1.96078" />
<circle cx="174.51" cy="166.667" r="1.96078" />
<circle cx="139.216" cy="135.294" r="1.96078" />
<circle cx="154.902" cy="131.373" r="1.96078" />
<circle cx="170.589" cy="135.294" r="1.96078" />
<circle cx="154.902" cy="111.765" r="1.96078" />
<ellipse cx="178.431" cy="115.686" rx="1.96078" ry="1.96078" />
<ellipse cx="178.431" cy="88.2353" rx="1.96078" ry="1.96078" />
<circle cx="147.058" cy="80.3922" r="1.96078" />
<ellipse cx="190.196" cy="60.7843" rx="1.96078" ry="1.96079" />
<circle cx="41.1766" cy="147.059" r="1.96078" />
<ellipse cx="37.2547" cy="123.529" rx="1.96078" ry="1.96078" />
<ellipse cx="9.80356" cy="127.451" rx="1.96078" ry="1.96079" />
<circle cx="52.9413" cy="103.922" r="1.96078" />
<ellipse cx="21.5682" cy="103.922" rx="1.96078" ry="1.96078" />
<circle cx="37.2547" cy="76.4706" r="1.96078" />
<ellipse cx="9.80356" cy="68.6274" rx="1.96078" ry="1.96078" />
<ellipse cx="25.4901" cy="56.8628" rx="1.96078" ry="1.96079" />
<ellipse cx="25.4901" cy="37.2549" rx="1.96078" ry="1.96078" />
<ellipse cx="60.784" cy="33.3333" rx="1.96079" ry="1.96078" />
<circle cx="96.078" cy="49.0196" r="1.96078" />
<circle cx="80.3924" cy="49.0196" r="1.96078" />
<ellipse cx="88.2352" cy="25.4902" rx="1.96078" ry="1.96078" />
<ellipse cx="107.844" cy="33.3333" rx="1.96078" ry="1.96078" />
<ellipse cx="111.764" cy="17.6471" rx="1.96078" ry="1.96078" />
<circle cx="143.138" cy="13.7254" r="1.96078" />
<ellipse cx="166.667" cy="29.4117" rx="1.96078" ry="1.96079" />
<ellipse cx="135.294" cy="21.5686" rx="1.96078" ry="1.96078" />
<ellipse cx="135.294" cy="64.7059" rx="1.96078" ry="1.96079" />
<circle cx="139.216" cy="49.0196" r="1.96078" />
<ellipse cx="90.196" cy="192.157" rx="3.92157" ry="3.92157" />
<ellipse cx="98.0388" cy="180.392" rx="3.92157" ry="3.92156" />
<circle cx="109.804" cy="172.549" r="3.92157" />
<circle cx="109.804" cy="156.863" r="3.92157" />
<ellipse cx="129.412" cy="172.549" rx="3.92157" ry="3.92157" />
<ellipse cx="58.8239" cy="11.7647" rx="3.92157" ry="3.92157" />
<ellipse cx="152.941" cy="180.392" rx="3.92157" ry="3.92156" />
<ellipse cx="145.098" cy="121.569" rx="3.92157" ry="3.92157" />
<ellipse cx="152.941" cy="23.5294" rx="3.92157" ry="3.92157" />
<ellipse cx="90.196" cy="35.2941" rx="3.92157" ry="3.92157" />
<circle cx="164.706" cy="82.353" r="3.92157" />
<ellipse cx="149.019" cy="66.6667" rx="3.92157" ry="3.92156" />
<ellipse cx="184.314" cy="70.5882" rx="3.92157" ry="3.92156" />
<ellipse cx="172.549" cy="101.961" rx="3.92157" ry="3.92156" />
<ellipse cx="188.235" cy="105.882" rx="3.92157" ry="3.92157" />
<ellipse cx="180.392" cy="145.098" rx="3.92156" ry="3.92157" />
</svg>
