<svg width="50" height="50" viewBox="0 0 50 50" fill="none" xmlns="http://www.w3.org/2000/svg">
<path d="M44.6653 3.125H29.6875C28.8246 3.125 28.125 2.42544 28.125 1.5625C28.125 0.699555 28.8246 0 29.6875 0H48.4375C49.3004 0 50 0.699555 50 1.5625V20.3125C50 21.1754 49.3004 21.875 48.4375 21.875C47.5746 21.875 46.875 21.1754 46.875 20.3125V5.33471L18.2924 33.9174C17.6822 34.5275 16.6928 34.5275 16.0826 33.9174C15.4725 33.3072 15.4725 32.3178 16.0826 31.7076L44.6653 3.125ZM37.5 46.875V23.4375C37.5 22.5746 38.1996 21.875 39.0625 21.875C39.9254 21.875 40.625 22.5746 40.625 23.4375V48.4375C40.625 49.3004 39.9254 50 39.0625 50H1.5625C0.699555 50 0 49.3004 0 48.4375V10.9375C0 10.0746 0.699555 9.375 1.5625 9.375H26.5625C27.4254 9.375 28.125 10.0746 28.125 10.9375C28.125 11.8004 27.4254 12.5 26.5625 12.5H3.125V46.875H37.5Z" />
</svg>
