<svg width="192" height="192" viewBox="0 0 192 192" fill="none" xmlns="http://www.w3.org/2000/svg">
<g clip-path="url(#clip0)">
<path d="M2.79005 61.6588H8.37807L11.1681 56.8294L8.37807 52H2.79005L0 56.8294L2.79005 61.6588Z" fill="#7F3FFF"/>
<path d="M1.13025 94.7463V65.5491H10.0458V94.7463H1.13025Z" fill="#0D6796"/>
<path d="M44.3642 94.7464H35.4487V78.3328C35.4487 76.4074 35.0851 75.008 34.358 74.1347C34.0133 73.7108 33.5748 73.3726 33.0769 73.1466C32.579 72.9207 32.0354 72.8132 31.4889 72.8327C30.8398 72.8354 30.1977 72.9668 29.5999 73.2194C28.9405 73.4962 28.3211 73.8597 27.7583 74.3005C27.1597 74.774 26.628 75.3261 26.1775 75.9418C25.7089 76.5819 25.3411 77.2898 25.0868 78.0409V94.7464H16.1712V65.5492H24.1936V70.4417C25.2919 68.6831 26.8793 67.2819 28.7621 66.4093C30.8945 65.4306 33.2207 64.9451 35.5673 64.9889C37.1547 64.9153 38.7327 65.2696 40.1357 66.0147C41.2424 66.658 42.1629 67.577 42.8072 68.682C43.4436 69.7915 43.8696 71.0087 44.0639 72.2724C44.2654 73.5224 44.3684 74.7862 44.3721 76.0523L44.3642 94.7464Z" fill="#0D6796"/>
<path d="M68.8187 73.164C66.8222 73.1725 64.8426 73.5304 62.9699 74.2215C61.3912 74.7573 60.0512 75.8298 59.1839 77.2517V94.7464H50.2684V65.5491H58.4884V71.4438C59.3797 69.6106 60.7099 68.025 62.3613 66.8274C63.826 65.7519 65.5862 65.1514 67.4039 65.1072H68.2971C68.4829 65.106 68.6684 65.1245 68.8503 65.1624L68.8187 73.164ZM81.4095 95.2987C78.4061 95.2987 76.1324 94.3623 74.5885 92.4895C73.0446 90.6167 72.2727 87.8653 72.2727 84.2353V65.5412H81.1882V82.2862C81.0969 83.7265 81.4679 85.1584 82.2473 86.3738C82.5931 86.8401 83.049 87.2137 83.5744 87.4615C84.0998 87.7093 84.6784 87.8236 85.2587 87.7943C86.4733 87.7869 87.6646 87.4603 88.7127 86.8473C89.9896 86.0501 91.0188 84.9133 91.6845 83.5646V65.5412H100.6V84.7325C100.54 85.3818 100.686 86.0336 101.019 86.5948C101.209 86.7959 101.438 86.9564 101.692 87.0663C101.946 87.1761 102.22 87.2332 102.497 87.234V94.7464C101.78 94.9078 101.054 95.029 100.323 95.1094C99.7306 95.1646 99.1852 95.1883 98.7031 95.1883C95.51 95.1883 93.6921 93.9467 93.2495 91.4636L93.0756 89.6802C91.8385 91.5296 90.1159 93.0037 88.0962 93.9415C85.9923 94.8728 83.7106 95.3359 81.4095 95.2987ZM125.979 95.2987C123.959 95.3523 121.961 94.8733 120.186 93.9099C118.574 93.0058 117.259 91.6545 116.4 90.0196V106.591H107.492V65.557H115.238V70.2917C116.249 68.6877 117.635 67.3527 119.277 66.4013C121.043 65.4353 123.034 64.9559 125.047 65.0125C126.921 64.9909 128.777 65.3901 130.477 66.1804C132.108 66.9294 133.568 68.0036 134.768 69.3368C136 70.7433 136.962 72.3644 137.606 74.1189C138.305 76.016 138.656 78.0236 138.641 80.0451C138.661 82.1036 138.341 84.1513 137.693 86.1055C137.118 87.8557 136.229 89.4868 135.069 90.9191C133.973 92.244 132.607 93.3201 131.061 94.0756C129.488 94.8793 127.746 95.2985 125.979 95.2987ZM122.976 87.7943C123.898 87.8048 124.808 87.5851 125.624 87.1551C126.421 86.7272 127.129 86.1514 127.71 85.4585C128.318 84.7259 128.782 83.8852 129.078 82.9806C129.392 82.0202 129.552 81.0161 129.552 80.0057C129.56 78.99 129.38 77.9815 129.022 77.0307C128.689 76.1581 128.196 75.3552 127.568 74.6634C126.949 73.9814 126.188 73.4427 125.339 73.0851C124.445 72.7047 123.482 72.5113 122.509 72.517C121.25 72.527 120.022 72.9056 118.976 73.6059C117.852 74.3132 116.952 75.326 116.384 76.5257V82.5308C116.952 83.9825 117.882 85.2648 119.087 86.2555C120.155 87.22 121.536 87.7666 122.976 87.7943ZM161.705 93.1839C160.331 93.7453 158.924 94.2223 157.492 94.6122C155.949 95.0478 154.353 95.2708 152.75 95.2751C151.681 95.2863 150.617 95.1455 149.588 94.8568C148.646 94.6063 147.768 94.1599 147.011 93.5469C146.237 92.8974 145.635 92.0683 145.257 91.1322C144.802 89.9799 144.584 88.7482 144.617 87.5102V72.2723H140.886V65.5412H144.617V56.2533H153.532V65.5412H159.492V72.2723H153.532V84.4563C153.476 84.8121 153.503 85.176 153.609 85.5201C153.716 85.8642 153.899 86.1795 154.146 86.442C154.393 86.7046 154.697 86.9074 155.034 87.0351C155.372 87.1627 155.734 87.2119 156.093 87.1787C156.793 87.1736 157.489 87.0618 158.156 86.8473C158.786 86.6554 159.399 86.4126 159.989 86.1213L161.705 93.1839Z" fill="url(#paint0_linear)"/>
<path d="M188.759 55.3221H183.48L180.84 59.8832L183.48 64.4522H188.759L191.399 59.8832L188.759 55.3221Z" stroke="url(#paint1_linear)" stroke-width="1.32" stroke-miterlimit="10"/>
<path d="M186.333 75.4052L182.025 76.5415L180.863 80.8343L184.009 83.9828L188.309 82.8386L189.471 78.5537L186.333 75.4052Z" stroke="url(#paint2_linear)" stroke-width="1.32" stroke-miterlimit="10"/>
<path d="M168.565 56.8373L166.605 57.5633L166.249 59.6229L167.862 60.9565L169.822 60.2305L170.178 58.1709L168.565 56.8373Z" stroke="url(#paint3_linear)" stroke-width="1.32" stroke-miterlimit="10"/>
<path d="M166.32 85.6163H164.424L163.483 87.2498L164.424 88.8833H166.32L167.269 87.2498L166.32 85.6163Z" stroke="url(#paint4_linear)" stroke-width="1.32" stroke-miterlimit="10"/>
<path d="M176.493 89.6487L175.157 90.9902L175.647 92.813L177.473 93.3023L178.816 91.9608L178.326 90.1379L176.493 89.6487Z" stroke="url(#paint5_linear)" stroke-width="1.32" stroke-miterlimit="10"/>
<path d="M172.628 78.7432L170.43 79.5875L170.059 81.9154L171.893 83.3911L174.09 82.5467L174.453 80.2188L172.628 78.7432Z" stroke="url(#paint6_linear)" stroke-width="1.32" stroke-miterlimit="10"/>
<path d="M179.441 70.8361L177.228 70.0312L175.426 71.5464L175.845 73.8664L178.058 74.6634L179.86 73.1483L179.441 70.8361Z" stroke="url(#paint7_linear)" stroke-width="1.32" stroke-miterlimit="10"/>
<path d="M171.505 65.778L169.917 65.9595L169.276 67.4272L170.233 68.7056L171.822 68.5241L172.454 67.0642L171.505 65.778Z" stroke="url(#paint8_linear)" stroke-width="1.32" stroke-miterlimit="10"/>
<path d="M165.672 72.8011L164.439 72.0909L163.206 72.8011V74.2294L164.439 74.9397L165.672 74.2294V72.8011Z" stroke="url(#paint9_linear)" stroke-width="1.32" stroke-miterlimit="10"/>
<path d="M15.3571 133.626V115.697H23.0239C23.8429 115.687 24.6536 115.863 25.395 116.21C26.0988 116.548 26.7297 117.02 27.2524 117.599C27.765 118.176 28.1717 118.838 28.4538 119.556C28.7349 120.265 28.8797 121.02 28.8806 121.782C28.8837 122.801 28.6368 123.806 28.1614 124.709C27.6974 125.616 27.0125 126.392 26.1696 126.966C25.2758 127.557 24.222 127.86 23.1503 127.834H19.5067V133.618L15.3571 133.626ZM19.5067 124.228H22.9211C23.2382 124.232 23.5483 124.136 23.8063 123.952C24.0987 123.742 24.3261 123.455 24.4624 123.123C24.6414 122.691 24.7275 122.226 24.7153 121.758C24.7347 121.28 24.6342 120.806 24.4228 120.377C24.2606 120.05 24.0083 119.776 23.6957 119.588C23.4158 119.422 23.0963 119.335 22.7709 119.335H19.5304L19.5067 124.228Z" fill="#7F3FFF"/>
<path d="M36.8319 133.879C35.7995 133.896 34.7738 133.711 33.8126 133.334C32.9896 133.005 32.2433 132.51 31.6205 131.88C30.9976 131.25 30.5116 130.499 30.1927 129.673C29.8816 128.853 29.7236 127.984 29.7263 127.108C29.7228 126.224 29.8809 125.347 30.1927 124.52C30.5157 123.71 30.9997 122.975 31.6153 122.358C32.2464 121.708 33.0089 121.199 33.8521 120.866C35.7947 120.13 37.9402 120.13 39.8828 120.866C40.7215 121.203 41.4806 121.711 42.1116 122.358C42.6989 122.985 43.1604 123.719 43.4711 124.52C43.7893 125.345 43.9501 126.223 43.9453 127.108C43.9492 127.985 43.7883 128.855 43.4711 129.673C43.151 130.476 42.6787 131.21 42.08 131.835C41.4472 132.481 40.6887 132.991 39.8511 133.334C38.8907 133.713 37.8645 133.898 36.8319 133.879ZM33.8758 127.108C33.861 127.72 33.9938 128.326 34.2631 128.876C34.5019 129.354 34.8649 129.76 35.3143 130.051C35.7698 130.333 36.2964 130.478 36.8319 130.47C37.3671 130.478 37.8926 130.327 38.3415 130.036C38.7912 129.744 39.152 129.334 39.3848 128.852C39.635 128.302 39.7645 127.704 39.7645 127.1C39.7645 126.496 39.635 125.899 39.3848 125.348C39.1541 124.865 38.7928 124.455 38.3415 124.165C37.8824 123.896 37.36 123.755 36.8279 123.755C36.2959 123.755 35.7735 123.896 35.3143 124.165C34.8592 124.47 34.4958 124.892 34.2631 125.388C34 125.923 33.8673 126.512 33.8758 127.108Z" fill="#7F3FFF"/>
<path d="M45.1783 127.084C45.1696 125.889 45.4403 124.708 45.9687 123.636C46.4391 122.662 47.1556 121.827 48.0474 121.213C48.9411 120.606 50.0018 120.292 51.0825 120.314C51.9706 120.306 52.8444 120.538 53.6117 120.984C54.3369 121.4 54.931 122.009 55.3269 122.744V115.192H59.3736V129.128C59.3458 129.425 59.4181 129.722 59.5791 129.973C59.6637 130.062 59.7652 130.134 59.8778 130.184C59.9905 130.234 60.1119 130.262 60.2351 130.264V133.626C59.6679 133.744 59.0912 133.81 58.5121 133.823C57.9203 133.851 57.3347 133.694 56.8365 133.374C56.6274 133.226 56.4498 133.038 56.3141 132.822C56.1784 132.605 56.0873 132.363 56.0461 132.111L55.9671 131.424C55.519 132.228 54.8348 132.875 54.0069 133.279C53.2156 133.679 52.341 133.887 51.454 133.887C50.5868 133.894 49.7277 133.72 48.9326 133.374C48.1756 133.043 47.4969 132.556 46.9409 131.945C46.3648 131.32 45.9213 130.584 45.6368 129.783C45.3239 128.918 45.1687 128.004 45.1783 127.084ZM55.3189 128.663V125.98C55.1606 125.551 54.9158 125.158 54.5997 124.827C54.2956 124.505 53.9371 124.238 53.5406 124.038C53.1686 123.848 52.7571 123.748 52.3392 123.746C51.9231 123.74 51.5114 123.832 51.1378 124.015C50.7685 124.207 50.445 124.476 50.1894 124.804C49.9149 125.125 49.7031 125.494 49.565 125.893C49.422 126.309 49.3499 126.747 49.3516 127.187C49.3451 127.638 49.4284 128.086 49.5966 128.505C49.7492 128.893 49.9745 129.25 50.2605 129.554C50.5474 129.853 50.8914 130.092 51.2722 130.257C51.6738 130.419 52.1033 130.503 52.5368 130.501C52.8214 130.501 53.1042 130.456 53.3746 130.367C53.6487 130.274 53.9134 130.155 54.165 130.012C54.413 129.856 54.6367 129.665 54.8289 129.444C55.0278 129.212 55.1953 128.954 55.3269 128.678L55.3189 128.663Z" fill="#7F3FFF"/>
<path d="M79.4731 120.977C79.325 120.811 79.1449 120.677 78.9435 120.582C78.5739 120.374 78.1941 120.184 77.8054 120.014C77.3213 119.801 76.8219 119.624 76.3116 119.485C75.7972 119.339 75.2656 119.262 74.7308 119.256C74.1598 119.224 73.591 119.35 73.0868 119.619C72.8984 119.737 72.7454 119.903 72.6438 120.1C72.5423 120.297 72.496 120.518 72.5098 120.74C72.5036 120.921 72.5405 121.102 72.6174 121.266C72.6943 121.431 72.8091 121.575 72.9524 121.687C73.3354 121.968 73.7667 122.176 74.2249 122.302L76.2799 122.918C77.3091 123.174 78.308 123.539 79.2597 124.007C80.0358 124.378 80.7028 124.944 81.1961 125.648C81.6779 126.449 81.9117 127.374 81.868 128.307C81.8942 129.19 81.7014 130.066 81.3068 130.856C80.9534 131.532 80.4374 132.11 79.8051 132.537C79.1462 132.975 78.412 133.288 77.6394 133.46C76.8216 133.657 75.983 133.755 75.1418 133.752C74.2368 133.751 73.334 133.661 72.4466 133.484C71.5412 133.304 70.6548 133.04 69.7988 132.695C68.9826 132.381 68.2033 131.979 67.4751 131.495L69.2929 127.889C69.4979 128.066 69.7204 128.222 69.9569 128.355C70.3973 128.622 70.857 128.857 71.3321 129.057C71.9254 129.32 72.5386 129.537 73.1658 129.704C73.833 129.886 74.5213 129.979 75.2129 129.98C75.7878 130.021 76.3627 129.901 76.8727 129.633C77.042 129.537 77.1821 129.396 77.2781 129.227C77.374 129.057 77.4224 128.865 77.4181 128.67C77.4248 128.461 77.3757 128.253 77.2757 128.069C77.1757 127.884 77.0285 127.73 76.849 127.621C76.3584 127.318 75.8257 127.09 75.2683 126.942C74.6201 126.737 73.8772 126.516 73.0315 126.264C72.0981 125.994 71.197 125.624 70.3442 125.159C69.6897 124.799 69.1438 124.27 68.7634 123.628C68.3927 122.935 68.2127 122.156 68.2417 121.371C68.2103 120.252 68.5249 119.149 69.1428 118.215C69.732 117.352 70.5541 116.673 71.5139 116.258C72.5596 115.809 73.6876 115.583 74.8256 115.595C75.649 115.593 76.4694 115.694 77.2679 115.895C78.0224 116.1 78.7597 116.364 79.4731 116.684C80.1528 116.992 80.7614 117.291 81.3068 117.591L79.4731 120.977Z" fill="#7F3FFF"/>
<path d="M92.1983 133.879C91.2875 133.9 90.3874 133.679 89.59 133.239C88.8612 132.833 88.2573 132.235 87.8432 131.511V139H83.7807V120.519H87.2979V122.681C87.768 121.933 88.4262 121.321 89.2069 120.905C89.9876 120.49 90.8636 120.286 91.7477 120.314C92.5986 120.307 93.4405 120.488 94.2137 120.842C94.9593 121.185 95.6265 121.676 96.1739 122.287C96.7401 122.909 97.1803 123.635 97.4701 124.425C97.7763 125.27 97.9288 126.162 97.9206 127.061C97.9407 128.261 97.6895 129.451 97.1856 130.541C96.7419 131.522 96.0399 132.365 95.1543 132.979C94.2859 133.577 93.2531 133.891 92.1983 133.879ZM90.8309 130.47C91.2485 130.474 91.6609 130.376 92.0323 130.186C92.398 129.988 92.7205 129.72 92.9807 129.396C93.2559 129.077 93.4654 128.707 93.5972 128.307C93.7429 127.886 93.8177 127.443 93.8185 126.998C93.8211 126.552 93.738 126.11 93.5735 125.696C93.417 125.309 93.1891 124.956 92.9017 124.654C92.6181 124.353 92.2731 124.116 91.89 123.959C91.4898 123.792 91.0593 123.709 90.6254 123.715C90.3579 123.719 90.0921 123.759 89.835 123.833C89.5569 123.912 89.2909 124.029 89.0446 124.18C88.8019 124.337 88.5766 124.52 88.3728 124.725C88.1709 124.942 88.0006 125.186 87.867 125.451V128.142C88.0495 128.567 88.2975 128.961 88.602 129.31C88.8966 129.633 89.2474 129.9 89.6374 130.099C89.9987 130.318 90.4086 130.446 90.8309 130.47Z" fill="#7F3FFF"/>
<path d="M99.1536 129.72C99.1385 128.904 99.3973 128.107 99.8887 127.455C100.419 126.779 101.116 126.251 101.912 125.924C102.848 125.536 103.855 125.346 104.868 125.364C105.398 125.365 105.927 125.412 106.449 125.506C106.916 125.583 107.373 125.715 107.808 125.901V125.317C107.823 125.022 107.772 124.727 107.659 124.454C107.545 124.181 107.372 123.936 107.152 123.739C106.572 123.323 105.864 123.124 105.153 123.178C104.44 123.174 103.732 123.303 103.066 123.557C102.346 123.848 101.658 124.21 101.011 124.638L99.7938 122.066C100.642 121.509 101.566 121.076 102.536 120.779C103.519 120.488 104.539 120.342 105.564 120.345C107.229 120.243 108.875 120.741 110.203 121.75C110.766 122.255 111.207 122.881 111.493 123.581C111.779 124.281 111.903 125.036 111.855 125.79V129.183C111.836 129.46 111.902 129.735 112.045 129.973C112.222 130.152 112.464 130.254 112.717 130.257V133.618C112.385 133.681 112.061 133.737 111.768 133.768C111.506 133.798 111.242 133.814 110.978 133.816C110.365 133.855 109.755 133.698 109.239 133.366C108.845 133.06 108.58 132.618 108.496 132.127L108.417 131.543C107.875 132.273 107.17 132.868 106.358 133.279C105.545 133.69 104.648 133.906 103.738 133.91C102.915 133.924 102.101 133.737 101.367 133.366C100.694 133.019 100.125 132.502 99.7148 131.866C99.3174 131.223 99.1219 130.475 99.1536 129.72ZM107.192 130.193C107.37 130.059 107.525 129.897 107.65 129.712C107.757 129.562 107.817 129.383 107.824 129.199V128.055C107.46 127.92 107.085 127.819 106.702 127.755C106.321 127.686 105.935 127.649 105.548 127.645C104.9 127.619 104.259 127.787 103.706 128.126C103.484 128.25 103.299 128.431 103.17 128.65C103.041 128.869 102.972 129.119 102.971 129.373C102.975 129.655 103.063 129.93 103.224 130.162C103.4 130.414 103.64 130.616 103.92 130.746C104.248 130.902 104.608 130.977 104.971 130.967C105.384 130.966 105.794 130.891 106.18 130.746C106.549 130.627 106.892 130.439 107.192 130.193Z" fill="#7F3FFF"/>
<path d="M121.158 133.879C120.128 133.897 119.105 133.712 118.147 133.334C117.308 132.99 116.547 132.48 115.91 131.835C115.301 131.215 114.823 130.48 114.503 129.673C114.182 128.847 114.018 127.97 114.021 127.084C114.014 125.919 114.308 124.772 114.874 123.754C115.442 122.716 116.284 121.854 117.309 121.261C118.482 120.602 119.813 120.275 121.158 120.314C122.51 120.273 123.846 120.612 125.015 121.292C126.03 121.895 126.853 122.773 127.386 123.825L123.434 125.017C123.197 124.625 122.862 124.301 122.462 124.078C122.053 123.861 121.597 123.75 121.134 123.754C120.602 123.746 120.079 123.888 119.625 124.165C119.174 124.449 118.806 124.846 118.558 125.317C118.295 125.869 118.158 126.473 118.158 127.084C118.158 127.696 118.295 128.3 118.558 128.852C118.806 129.331 119.173 129.739 119.625 130.036C120.067 130.329 120.588 130.48 121.118 130.47C121.442 130.471 121.763 130.415 122.067 130.304C122.353 130.191 122.62 130.034 122.857 129.838C123.09 129.649 123.283 129.415 123.426 129.152L127.378 130.367C127.05 131.058 126.582 131.673 126.003 132.174C125.382 132.716 124.667 133.139 123.893 133.421C123.016 133.737 122.09 133.892 121.158 133.879Z" fill="#7F3FFF"/>
<path d="M135.448 133.879C134.419 133.896 133.396 133.714 132.437 133.342C131.601 133.008 130.841 132.512 130.2 131.882C129.604 131.269 129.139 130.541 128.833 129.744C128.513 128.937 128.35 128.078 128.35 127.211C128.33 126.026 128.61 124.856 129.165 123.809C129.735 122.767 130.579 121.899 131.607 121.3C132.789 120.675 134.106 120.349 135.444 120.349C136.782 120.349 138.099 120.675 139.281 121.3C140.297 121.89 141.131 122.747 141.692 123.778C142.251 124.793 142.539 125.934 142.53 127.092C142.529 127.322 142.516 127.551 142.49 127.779C142.49 128 142.443 128.197 142.427 128.363H132.618C132.648 128.879 132.818 129.378 133.109 129.807C133.379 130.198 133.751 130.508 134.183 130.706C134.618 130.911 135.094 131.016 135.575 131.014C136.172 131.018 136.76 130.869 137.282 130.58C137.775 130.337 138.165 129.925 138.38 129.42L141.819 130.383C141.474 131.083 140.99 131.706 140.396 132.214C139.752 132.759 139.012 133.182 138.214 133.46C137.325 133.763 136.388 133.905 135.448 133.879ZM132.516 125.845H138.317C138.267 125.354 138.102 124.881 137.835 124.464C137.592 124.073 137.244 123.756 136.831 123.549C136.399 123.326 135.919 123.212 135.432 123.218C134.945 123.209 134.464 123.323 134.033 123.549C133.626 123.76 133.282 124.076 133.037 124.464C132.759 124.878 132.581 125.351 132.516 125.845Z" fill="#7F3FFF"/>
<path d="M149.462 133.879C148.334 133.878 147.215 133.689 146.15 133.318C145.125 132.987 144.189 132.425 143.415 131.677L144.806 129.128C145.537 129.673 146.334 130.124 147.177 130.47C147.865 130.754 148.599 130.906 149.343 130.919C149.759 130.942 150.175 130.86 150.552 130.683C150.688 130.615 150.8 130.509 150.877 130.379C150.955 130.249 150.993 130.1 150.987 129.949C150.992 129.838 150.972 129.727 150.928 129.624C150.884 129.522 150.818 129.43 150.734 129.357C150.495 129.185 150.227 129.057 149.944 128.978C149.596 128.86 149.153 128.734 148.671 128.599C147.809 128.327 146.965 128.002 146.142 127.629C145.55 127.381 145.033 126.984 144.64 126.477C144.282 125.953 144.104 125.327 144.134 124.693C144.117 123.878 144.348 123.077 144.798 122.397C145.277 121.716 145.941 121.185 146.711 120.866C147.647 120.479 148.654 120.29 149.667 120.314C150.575 120.315 151.477 120.462 152.339 120.748C153.243 121.054 154.074 121.543 154.781 122.184L153.2 124.709C152.569 124.258 151.89 123.877 151.177 123.573C150.633 123.345 150.051 123.224 149.462 123.218C149.195 123.216 148.929 123.25 148.671 123.32C148.453 123.372 148.255 123.488 148.102 123.652C148.027 123.733 147.969 123.829 147.931 123.933C147.893 124.038 147.876 124.148 147.881 124.259C147.874 124.369 147.89 124.479 147.928 124.583C147.966 124.686 148.025 124.78 148.102 124.859C148.294 125.04 148.527 125.17 148.782 125.238C149.09 125.348 149.485 125.475 149.959 125.624C150.889 125.88 151.8 126.199 152.686 126.579C153.324 126.828 153.889 127.233 154.33 127.755C154.718 128.299 154.91 128.958 154.876 129.625C154.9 130.222 154.781 130.816 154.528 131.357C154.275 131.898 153.895 132.37 153.421 132.734C152.267 133.547 150.872 133.95 149.462 133.879Z" fill="#7F3FFF"/>
<path d="M156.725 109.258H158.409L160.717 115.981H159.136L158.677 114.474H156.496L156.038 115.981H154.457L156.725 109.258ZM158.345 113.409L157.555 110.821L156.765 113.409H158.345Z" fill="#0D6796"/>
<path d="M161.381 115.981V109.258H162.961V114.616H166.226V115.981H161.381Z" fill="#0D6796"/>
<path d="M166.929 115.981V109.258H169.806C170.112 109.255 170.414 109.319 170.691 109.448C170.954 109.575 171.19 109.752 171.387 109.968C171.582 110.187 171.738 110.438 171.845 110.71C171.947 110.961 172.001 111.229 172.003 111.499C172.004 111.881 171.911 112.258 171.735 112.596C171.56 112.938 171.301 113.232 170.984 113.448C170.648 113.668 170.254 113.781 169.853 113.772H168.486V115.942L166.929 115.981ZM168.51 112.462H169.782C169.902 112.46 170.018 112.422 170.114 112.352C170.224 112.275 170.309 112.168 170.359 112.044C170.427 111.881 170.459 111.707 170.454 111.531C170.463 111.351 170.425 111.171 170.343 111.01C170.287 110.894 170.2 110.797 170.091 110.729C169.982 110.66 169.856 110.624 169.727 110.623H168.51V112.462Z" fill="#0D6796"/>
<path d="M178.627 109.258V115.981H177.046V113.227H174.367V115.981H172.786V109.258H174.367V111.862H177.046V109.258H178.627Z" fill="#0D6796"/>
<path d="M181.622 109.258H183.306L185.614 115.981H184.033L183.575 114.474H181.354L180.903 115.981H179.322L181.622 109.258ZM183.243 113.409L182.452 110.821L181.662 113.409H183.243Z" fill="#0D6796"/>
</g>
<defs>
<linearGradient id="paint0_linear" x1="50.2684" y1="81.4261" x2="161.697" y2="81.4261" gradientUnits="userSpaceOnUse">
<stop stop-color="#2A88AF"/>
<stop offset="0.1" stop-color="#2C8FB5"/>
<stop offset="0.23" stop-color="#31A2C4"/>
<stop offset="0.39" stop-color="#3AC0DE"/>
<stop offset="0.49" stop-color="#40D6F0"/>
<stop offset="1" stop-color="#80E3F5"/>
</linearGradient>
<linearGradient id="paint1_linear" x1="180.239" y1="59.8832" x2="192" y2="59.8832" gradientUnits="userSpaceOnUse">
<stop stop-color="#1AD5EA"/>
<stop offset="0.1" stop-color="#1ED5EB"/>
<stop offset="0.6" stop-color="#2ED3EE"/>
<stop offset="1" stop-color="#33D3EF"/>
</linearGradient>
<linearGradient id="paint2_linear" x1="2144.19" y1="376.396" x2="2250.57" y2="376.396" gradientUnits="userSpaceOnUse">
<stop stop-color="#1AD5EA"/>
<stop offset="0.1" stop-color="#1ED5EB"/>
<stop offset="0.6" stop-color="#2ED3EE"/>
<stop offset="1" stop-color="#33D3EF"/>
</linearGradient>
<linearGradient id="paint3_linear" x1="989.719" y1="92.8389" x2="1014.82" y2="92.8389" gradientUnits="userSpaceOnUse">
<stop stop-color="#1AD5EA"/>
<stop offset="0.1" stop-color="#1ED5EB"/>
<stop offset="0.6" stop-color="#2ED3EE"/>
<stop offset="1" stop-color="#33D3EF"/>
</linearGradient>
<linearGradient id="paint4_linear" x1="943.654" y1="231.551" x2="967.581" y2="231.551" gradientUnits="userSpaceOnUse">
<stop stop-color="#1AD5EA"/>
<stop offset="0.1" stop-color="#1ED5EB"/>
<stop offset="0.6" stop-color="#2ED3EE"/>
<stop offset="1" stop-color="#33D3EF"/>
</linearGradient>
<linearGradient id="paint5_linear" x1="983.427" y1="272.402" x2="1005.75" y2="272.402" gradientUnits="userSpaceOnUse">
<stop stop-color="#1AD5EA"/>
<stop offset="0.1" stop-color="#1ED5EB"/>
<stop offset="0.6" stop-color="#2ED3EE"/>
<stop offset="1" stop-color="#33D3EF"/>
</linearGradient>
<linearGradient id="paint6_linear" x1="1112.47" y1="249.925" x2="1143.18" y2="249.925" gradientUnits="userSpaceOnUse">
<stop stop-color="#1AD5EA"/>
<stop offset="0.1" stop-color="#1ED5EB"/>
<stop offset="0.6" stop-color="#2ED3EE"/>
<stop offset="1" stop-color="#33D3EF"/>
</linearGradient>
<linearGradient id="paint7_linear" x1="1156.37" y1="189.493" x2="1187.59" y2="189.493" gradientUnits="userSpaceOnUse">
<stop stop-color="#1AD5EA"/>
<stop offset="0.1" stop-color="#1ED5EB"/>
<stop offset="0.6" stop-color="#2ED3EE"/>
<stop offset="1" stop-color="#33D3EF"/>
</linearGradient>
<linearGradient id="paint8_linear" x1="847.384" y1="122.34" x2="864.955" y2="122.34" gradientUnits="userSpaceOnUse">
<stop stop-color="#1AD5EA"/>
<stop offset="0.1" stop-color="#1ED5EB"/>
<stop offset="0.6" stop-color="#2ED3EE"/>
<stop offset="1" stop-color="#33D3EF"/>
</linearGradient>
<linearGradient id="paint9_linear" x1="670.781" y1="149.775" x2="681.73" y2="149.775" gradientUnits="userSpaceOnUse">
<stop stop-color="#1AD5EA"/>
<stop offset="0.1" stop-color="#1ED5EB"/>
<stop offset="0.6" stop-color="#2ED3EE"/>
<stop offset="1" stop-color="#33D3EF"/>
</linearGradient>
<clipPath id="clip0">
<rect width="191.4" height="191.4" fill="white"/>
</clipPath>
</defs>
</svg>
