<svg width="100" height="100" viewBox="0 0 100 100" fill="none" xmlns="http://www.w3.org/2000/svg">
<path d="M0 0H33.3333V33.3333H0V0ZM42.8571 0H47.619V4.7619H52.381V0H61.9048V4.7619H57.1429V9.52381H61.9048V14.2857H57.1429V19.0476H52.381V9.52381H47.619V19.0476H42.8571V14.2857H38.0952V9.52381H42.8571V0ZM66.6667 0H100V33.3333H66.6667V0ZM4.7619 4.7619V28.5714H28.5714V4.7619H4.7619ZM71.4286 4.7619V28.5714H95.2381V4.7619H71.4286ZM9.52381 9.52381H23.8095V23.8095H9.52381V9.52381ZM76.1905 9.52381H90.4762V23.8095H76.1905V9.52381ZM47.619 19.0476H52.381V23.8095H47.619V19.0476ZM57.1429 19.0476H61.9048V38.0952H57.1429V42.8571H52.381V52.381H47.619V42.8571H42.8571V47.619H38.0952V52.381H28.5714V57.1429H38.0952V61.9048H23.8095V52.381H19.0476V47.619H23.8095V42.8571H19.0476V38.0952H38.0952V28.5714H42.8571V33.3333H47.619V38.0952H52.381V33.3333H57.1429V19.0476ZM47.619 28.5714H52.381V33.3333H47.619V28.5714ZM0 38.0952H14.2857V42.8571H4.7619V47.619H9.52381V52.381H19.0476V61.9048H14.2857V57.1429H4.7619V52.381H0V38.0952ZM61.9048 38.0952H71.4286V42.8571H61.9048V38.0952ZM85.7143 38.0952H90.4762V42.8571H85.7143V38.0952ZM28.5714 42.8571V47.619H33.3333V42.8571H28.5714ZM71.4286 42.8571H85.7143V47.619H90.4762V42.8571H100V71.4286H71.4286V66.6667H61.9048V61.9048H57.1429V57.1429H66.6667V61.9048H71.4286V52.381H57.1429V47.619H71.4286V42.8571ZM42.8571 52.381H47.619V61.9048H57.1429V71.4286H66.6667V76.1905H57.1429V80.9524H52.381V66.6667H47.619V80.9524H38.0952V61.9048H42.8571V52.381ZM80.9524 52.381V57.1429H76.1905V61.9048H80.9524V66.6667H85.7143V61.9048H95.2381V52.381H80.9524ZM0 66.6667H33.3333V100H0V66.6667ZM4.7619 71.4286V95.2381H28.5714V71.4286H4.7619ZM9.52381 76.1905H23.8095V90.4762H9.52381V76.1905ZM66.6667 76.1905H80.9524V85.7143H85.7143V90.4762H80.9524V95.2381H76.1905V100H66.6667V90.4762H71.4286V85.7143H76.1905V80.9524H71.4286V85.7143H66.6667V76.1905ZM47.619 80.9524H52.381V100H47.619V80.9524ZM85.7143 80.9524H95.2381V85.7143H85.7143V80.9524ZM38.0952 85.7143H42.8571V100H38.0952V85.7143ZM57.1429 85.7143H61.9048V90.4762H57.1429V85.7143ZM95.2381 85.7143H100V90.4762H95.2381V85.7143ZM90.4762 90.4762H95.2381V95.2381H100V100H90.4762V90.4762ZM57.1429 95.2381H61.9048V100H57.1429V95.2381Z" />
</svg>
