<svg width="100" height="100" viewBox="0 0 100 100" fill="none" xmlns="http://www.w3.org/2000/svg">
<path fill-rule="evenodd" clip-rule="evenodd" d="M93.8737 28.3155L71.0892 5.34899C66.9042 1.13065 58.8079 -1.04745 53.1186 0.496517L21.9916 8.90563C16.2749 10.4496 10.3668 16.4049 8.83507 22.1672L0.492583 53.5704C-1.03915 59.3327 1.12169 67.4937 5.30661 71.6845L28.0912 94.651C32.2761 98.8694 40.3724 101.047 46.0617 99.5035L77.1887 91.0944C82.9054 89.5504 88.8135 83.5951 90.3453 77.8328L98.6877 46.4296C100.219 40.6673 98.0586 32.5063 93.8737 28.3155Z" fill="white"/>
<path fill-rule="evenodd" clip-rule="evenodd" d="M93.8737 28.3155L71.0892 5.34899C66.9042 1.13065 58.8079 -1.04745 53.1186 0.496517L21.9916 8.90563C16.2749 10.4496 10.3668 16.4049 8.83507 22.1672L0.492583 53.5704C-1.03915 59.3327 1.12169 67.4937 5.30661 71.6845L28.0912 94.651C32.2761 98.8694 40.3724 101.047 46.0617 99.5035L77.1887 91.0944C82.9054 89.5504 88.8135 83.5951 90.3453 77.8328L98.6877 46.4296C100.219 40.6673 98.0586 32.5063 93.8737 28.3155ZM24.2892 16.7082C26.4774 16.7082 28.2006 18.4451 28.2006 20.6508C28.2006 22.8013 26.4774 24.5383 24.2892 24.5383C22.101 24.5383 20.4325 22.8013 20.4325 20.6508C20.4325 18.4451 22.2104 16.7082 24.2892 16.7082ZM20.5693 29.0875C20.5693 28.3155 21.1984 27.6814 21.9642 27.6814H26.2859C27.0791 27.6814 27.7082 28.3155 27.6809 29.1151L27.5441 41.522C27.5441 44.3066 29.322 45.3543 31.3188 45.3543C33.2061 45.3543 34.8746 44.3893 35.066 41.9631L35.2028 22.3051C35.2028 21.1195 36.1601 20.1821 37.3363 20.1821H40.2083C41.3844 20.1821 42.3418 21.1471 42.3418 22.3326L42.3144 25.6687C42.9162 25.3103 43.5726 25.0897 44.2838 25.0897C46.472 25.0897 48.1952 26.8267 48.1952 29.0324C48.1952 31.1829 46.472 32.9474 44.2838 32.9474C43.5179 32.9474 42.8341 32.7269 42.2597 32.3684L42.205 41.522C42.205 44.2515 43.9282 45.2992 45.8702 45.3543C48.5508 45.3543 49.891 43.8103 49.891 43.8103C50.4928 43.2038 51.3134 42.8178 52.298 42.8178C53.5016 42.8454 54.6777 43.4519 55.2248 44.5548C55.6898 45.5197 56.7018 46.1814 58.3156 46.2917C60.2576 46.4296 61.5432 45.7127 61.6526 44.2239C61.762 42.7075 60.8867 42.1285 57.2762 40.9705C52.0245 39.1784 48.5508 37.7723 48.9337 32.5614C49.3166 27.6814 53.3101 24.8416 59.6285 25.3379C63.239 25.6136 65.7828 26.937 67.3419 28.8945C69.0651 31.0726 67.3966 34.2984 64.634 34.2433C63.4031 34.2157 62.2817 33.5264 61.762 32.396C61.3517 31.5137 60.5038 30.9347 59.1088 30.8245C57.2215 30.6866 56.1821 31.4035 56.0727 32.7544C55.9359 34.519 57.8232 34.905 60.7773 35.9251C65.7007 37.6345 69.1471 39.4817 68.7916 44.1136C68.4086 49.2694 64.3878 52.2746 57.8232 51.7783C55.3889 51.5853 53.3921 51.0063 51.8057 50.0689C49.5355 51.3648 47.2926 51.7783 44.2017 51.7783C41.1383 51.7783 38.6218 50.9512 37.0081 49.1867C35.7498 50.6755 33.9446 51.7783 31.264 51.7783C24.9183 51.7783 20.2957 49.1039 20.3504 43.2038L20.5693 29.0875ZM82.0848 66.6666C82.0848 67.9349 81.0728 68.955 79.8146 68.955H64.716C64.8528 72.098 66.7675 74.1383 69.9951 74.1383C71.8824 74.1383 73.25 73.5593 74.0432 72.5116C74.727 71.4915 75.9579 70.9676 77.1614 71.1331C79.8966 71.4915 81.0728 74.9654 79.0214 76.8402C78.9119 76.9505 78.8025 77.0332 78.6658 77.1159V77.1435C78.5837 77.1987 78.5017 77.2538 78.4196 77.3365C78.3375 77.3917 78.2828 77.4468 78.2008 77.5019C76.0947 79.0459 73.1953 79.9833 70.1592 79.9833C63.6767 79.9833 58.89 76.3991 57.5224 70.3886V75.8753C57.5224 77.8052 55.9633 79.3768 54.0486 79.3768C52.1339 79.3768 50.5749 77.8052 50.5749 75.8753V65.5086C50.5749 62.338 49.1525 60.5459 46.472 60.5459C43.9829 60.5459 42.4785 62.1725 42.1777 64.6815V75.8477C42.1777 77.7776 40.6186 79.3492 38.7039 79.3492C36.7892 79.3492 35.2301 77.7776 35.2301 75.8477V65.5086C35.2301 62.338 33.7531 60.5459 31.2093 60.5459C28.4467 60.5459 26.7783 62.5585 26.7783 65.5362V75.8201C26.7783 77.7501 25.2192 79.3216 23.3045 79.3216C21.3898 79.3216 19.8307 77.7501 19.8307 75.8201V67.218V67.1904V66.446C19.8307 53.598 29.7597 53.984 32.9052 53.984C36.2969 53.984 39.0048 55.3901 40.6459 57.9266C42.0682 55.6658 44.5026 53.984 48.2499 53.984C53.5836 53.984 57.1941 57.4028 57.5771 63.1375C58.89 57.0168 63.6767 53.405 70.0498 53.405C77.3255 53.405 82.1395 58.1472 82.1395 66.06V66.6666H82.0848ZM69.9404 59.057C66.9042 59.057 64.9075 60.9318 64.716 64.1852H74.8911C74.7544 61.0697 73.1679 59.057 69.9404 59.057Z" fill="#FF4612"/>
</svg>
